<svg viewBox="0 0 1707 1707" xmlns="http://www.w3.org/2000/svg">
  <path class="prefix__fil1"
    d="M544 343h29l115 68 1 113H544c-83 0-158 34-213 89-54 54-88 130-88 213 0 82 34 158 88 213 38 37 127 74 180 87l1 184c-103-16-238-73-309-143-87-88-142-208-142-341s55-254 142-342c88-87 208-141 341-141zm-13 784h158v182H544c-4 0-8 0-12-1l-1-181zm502-729l99-55h12c133 0 254 54 342 141 87 88 142 209 142 342s-55 253-142 341c-88 87-209 142-342 142H999v-182l145-5c83 0 159-29 213-83 55-55 89-131 89-213 0-83-34-159-89-213-54-55-130-89-213-89h-111V398zm-13 7v119h-21V417l21-12zm-96 904l-169 1v-181l169-2v182z"
    style="font-variation-settings:normal" fill="#1281c4" />
  <path class="prefix__fil2"
    d="M1152 343h-20l-99 55v141c11 3 19 13 19 25 0 9-4 17-11 21v77h-10v-72h-5c-2 0-4 0-6-1v74h-10v-79c-6-5-9-12-9-20 0-12 8-22 19-25V405l-76 43v861h208V343zM301 745h386v122H301z"
    fill="#1281c4" />
  <path class="prefix__fil3" fill="#1281c4" d="M853.334 483.028l-361.423-202.91L853.553 77.086l361.423 202.91z" />
  <path class="prefix__fil2"
    d="M532 1208zm0 0c0 103 0 206-1 309 70-70 136-133 206-203 0-292 1-585 1-877l-162-93h-43c-1 290-10 572-1 864z"
    shape-rendering="geometricPrecision" text-rendering="geometricPrecision" image-rendering="optimizeQuality"
    fill-rule="evenodd" clip-rule="evenodd" fill="#1281c4" />
  <path class="prefix__fil3"
    d="M532 1330c-3 86-48 155-84 217 137-49 285-113 289-233-13 1 2 0-4-9l-44 1-157 1v3c-1 7 0 13 0 20z"
    fill="#1281c4" />
  <path
    d="M772.077 1218.847v-90.853l21.077.03c11.593.022 45.895-.354 76.226-.829l55.149-.861v182.474l-38.402.834c-21.12.459-55.423.66-76.226.446l-37.824-.389z"
    fill="#083652" stroke="#000" stroke-width=".11460614" paint-order="stroke fill markers" />
  <path style="font-variation-settings:normal"
    d="M754.444 1219.106v-92.152l30.845-.095c16.964-.052 36.396-.26 43.182-.457 6.786-.197 31.332-.543 54.546-.768l42.209-.41.332 92.29.333 92.29-11.372.414c-6.254.227-44.83.555-85.723.729l-74.352.314z"
    fill="#1281c4" paint-order="stroke fill markers" />
</svg>