<?xml version="1.0" encoding="UTF-8" standalone="no"?>
<!-- Creator: CorelDRAW X8 -->

<svg
   xml:space="preserve"
   width="1.70666in"
   height="1.70666in"
   version="1.1"
   style="shape-rendering:geometricPrecision; text-rendering:geometricPrecision; image-rendering:optimizeQuality; fill-rule:evenodd; clip-rule:evenodd"
   viewBox="0 0 1707 1707"
   id="svg5"
   sodipodi:docname="ologo.svg"
   inkscape:version="1.3.2 (091e20e, 2023-11-25, custom)"
   xmlns:inkscape="http://www.inkscape.org/namespaces/inkscape"
   xmlns:sodipodi="http://sodipodi.sourceforge.net/DTD/sodipodi-0.dtd"
   xmlns:xlink="http://www.w3.org/1999/xlink"
   xmlns="http://www.w3.org/2000/svg"
   xmlns:svg="http://www.w3.org/2000/svg"><sodipodi:namedview
   id="namedview5"
   pagecolor="#505050"
   bordercolor="#eeeeee"
   borderopacity="1"
   inkscape:showpageshadow="0"
   inkscape:pageopacity="0"
   inkscape:pagecheckerboard="0"
   inkscape:deskcolor="#505050"
   inkscape:document-units="in"
   inkscape:zoom="4.5105156"
   inkscape:cx="103.20328"
   inkscape:cy="88.570806"
   inkscape:window-width="1920"
   inkscape:window-height="974"
   inkscape:window-x="-11"
   inkscape:window-y="-11"
   inkscape:window-maximized="1"
   inkscape:current-layer="Layer_x0020_1" />
 <defs
   id="defs1"><linearGradient
   id="linearGradient5"
   inkscape:collect="always"><stop
     style="stop-color:#00afef;stop-opacity:1;"
     offset="0"
     id="stop5" /><stop
     style="stop-color:#000000;stop-opacity:1;"
     offset="0.36658457"
     id="stop9" /><stop
     style="stop-color:#004362;stop-opacity:1;"
     offset="0.5"
     id="stop7" /><stop
     style="stop-color:#000000;stop-opacity:1;"
     offset="0.59893262"
     id="stop8" /><stop
     style="stop-color:#00afff;stop-opacity:1;"
     offset="1"
     id="stop6" /></linearGradient>
  <style
   type="text/css"
   id="style1">
   <![CDATA[
    .fil0 {fill:#00AFEF}
    .fil2 {fill:#00AFEF}
    .fil1 {fill:#00AFEF;fill-rule:nonzero}
   ]]>
  </style>
 <linearGradient
   inkscape:collect="always"
   xlink:href="#linearGradient5"
   id="linearGradient6"
   x1="89"
   y1="853"
   x2="1617"
   y2="853"
   gradientUnits="userSpaceOnUse" /></defs>
 <g
   id="Layer_x0020_1"
   inkscape:label="Layer 1">
  <metadata
   id="CorelCorpID_0Corel-Layer" />
  <rect
   class="fil0"
   x="395"
   y="778"
   width="208"
   height="133"
   id="rect1"
   style="font-variation-settings:normal;opacity:1;vector-effect:none;fill:url(#linearGradient6);fill-opacity:1;stroke-width:1.00000004;stroke-linecap:butt;stroke-linejoin:miter;stroke-miterlimit:4;stroke-dasharray:none;stroke-dashoffset:0;stroke-opacity:1;-inkscape-stroke:none;stop-color:#000000;stop-opacity:1" />
  <path
   class="fil0"
   d="M518 555l331 -59 339 66 -98 20 0 58c-18,-8 -37,-14 -57,-17l0 115c9,3 15,11 15,20l0 96c0,12 -10,21 -21,21l0 0c-12,0 -21,-9 -21,-21l0 -96c0,-9 6,-17 15,-20l0 -116c-4,0 -7,0 -11,0 -68,0 -127,36 -157,89 -30,-53 -89,-89 -157,-89 -32,0 -63,8 -89,23l0 -70 -89 -20z"
   id="path1"
   style="fill:url(#linearGradient6);fill-opacity:1;font-variation-settings:normal;opacity:1;vector-effect:none;stroke-width:1.00000004;stroke-linecap:butt;stroke-linejoin:miter;stroke-miterlimit:4;stroke-dasharray:none;stroke-dashoffset:0;stroke-opacity:1;-inkscape-stroke:none;stop-color:#000000;stop-opacity:1" />
  <path
   class="fil1"
   d="M1156 626l-55 0 0 -34 90 -17 0 -21 -340 -66 -4 0 -331 59 -1 21 81 17 0 41 -46 0c-63,0 -119,25 -161,67 -41,41 -67,98 -67,160 0,63 26,120 67,161 41,41 97,66 159,67l0 233c-126,0 -241,-52 -324,-135 -83,-84 -135,-199 -135,-326 0,-127 52,-242 135,-325 84,-84 199,-136 326,-136l606 0c127,0 242,52 326,136 83,83 135,198 135,325 0,127 -52,242 -135,326 -84,83 -199,135 -326,135l-215 0 0 -233 215 0c62,0 119,-26 161,-67 41,-41 67,-98 67,-161 0,-62 -26,-119 -67,-160 -42,-42 -99,-67 -161,-67zm-531 455l140 0 0 233 -140 0 0 -233zm157 0l143 0 0 233 -143 0 0 -233z"
   id="path2"
   style="fill:url(#linearGradient6)" />
  <g
   id="g3"
   style="fill:#00354d;fill-opacity:1">
   <path
   class="fil0"
   d="M941 1314l206 0 0 -731 -46 9 0 67 -15 -7c-8,-4 -17,-8 -26,-10 -5,-2 -10,-3 -16,-4l0 96c4,2 6,5 9,8 4,5 6,12 6,19l0 96c0,9 -4,17 -9,22 -6,6 -14,10 -23,10 -8,0 -16,-4 -22,-10 -5,-5 -9,-13 -9,-22l0 -96c0,-7 2,-14 6,-19 2,-3 5,-6 9,-8l0 -99 -2 0 -1 0 0 0 -1 0 -1 0 -1 0 -1 0 -1 0 0 0 -1 0 -2 0 -1 0 -1 0 -1 0 0 1 -1 0 -1 0 -2 0 0 0 -1 0 0 0 -1 0 -1 0 -1 0 -1 0 -1 0 0 1 -1 0 -1 0 -2 0 -1 0 -1 0 -1 1 -1 0 -1 0 -1 0 0 0 -1 0 -1 1 -2 0 -1 0 0 0 -1 0 -1 1 -1 0 -1 0 0 0 -1 0 -1 1 -1 0 -1 0 -1 0 -1 1 0 0 -1 0 -1 0 -1 1 -1 0 0 0 -1 0 -1 1 -2 0 0 0 -1 0 -1 1 0 0 -2 0 -1 1 -1 0 0 0 -2 1 -1 0 -1 1 0 0 -1 0 0 0 -2 1 0 665zm0 -922l0 114 0 -114z"
   id="path3"
   style="fill:#00354d;fill-opacity:1" />
  </g>
  <path
   class="fil2"
   d="M560 1314l206 0 0 -665c-21,-9 -45,-14 -70,-14 -15,0 -30,2 -44,5 -14,4 -28,10 -41,17l-15 8 0 -80 -36 -7 0 736zm206 -811l0 -111 -206 0 0 147 206 -36z"
   id="path4"
   style="fill:#00354d;fill-opacity:1" />
  <path
   class="fil0"
   d="M766 1311l-206 0 0 14c-2,70 -55,124 -131,150 33,17 72,27 114,27 123,0 223,-85 223,-191z"
   id="path5"
   style="fill:#00354d;fill-opacity:1" />
 <path
   style="fill:#00354d;fill-opacity:1;stroke:#000000;stroke-width:0;stroke-linecap:butt;stroke-linejoin:miter;stroke-dasharray:none;stroke-opacity:1"
   d="m 940.69793,505.2137 -0.28873,-113.40059 202.4031,0.57207 1.1549,152.16863 z"
   id="path8"
   sodipodi:nodetypes="ccccc" /></g>
</svg>
