<?xml version="1.0" encoding="UTF-8" standalone="no"?>
<!-- Creator: CorelDRAW X8 -->

<svg
   xml:space="preserve"
   width="8.5in"
   height="11in"
   version="1.1"
   style="shape-rendering:geometricPrecision; text-rendering:geometricPrecision; image-rendering:optimizeQuality; fill-rule:evenodd; clip-rule:evenodd"
   viewBox="0 0 8500 11000"
   id="svg6"
   sodipodi:docname="s.svg"
   inkscape:version="1.3.2 (091e20e, 2023-11-25, custom)"
   xmlns:inkscape="http://www.inkscape.org/namespaces/inkscape"
   xmlns:sodipodi="http://sodipodi.sourceforge.net/DTD/sodipodi-0.dtd"
   xmlns:xlink="http://www.w3.org/1999/xlink"
   xmlns="http://www.w3.org/2000/svg"
   xmlns:svg="http://www.w3.org/2000/svg"><sodipodi:namedview
   id="namedview6"
   pagecolor="#505050"
   bordercolor="#eeeeee"
   borderopacity="1"
   inkscape:showpageshadow="0"
   inkscape:pageopacity="0"
   inkscape:pagecheckerboard="0"
   inkscape:deskcolor="#505050"
   inkscape:document-units="in"
   inkscape:zoom="0.98968165"
   inkscape:cx="367.28982"
   inkscape:cy="550.17692"
   inkscape:window-width="1920"
   inkscape:window-height="974"
   inkscape:window-x="-11"
   inkscape:window-y="-11"
   inkscape:window-maximized="1"
   inkscape:current-layer="Layer_x0020_1" />
 <defs
   id="defs1"><linearGradient
   id="linearGradient8"
   inkscape:collect="always"><stop
     style="stop-color:#1281c4;stop-opacity:1;"
     offset="0"
     id="stop8" /><stop
     style="stop-color:#120000;stop-opacity:1;"
     offset="0.42939246"
     id="stop10" /><stop
     style="stop-color:#120000;stop-opacity:1;"
     offset="0.6104269"
     id="stop11" /><stop
     style="stop-color:#1281c4;stop-opacity:1;"
     offset="1"
     id="stop9" /></linearGradient>
  <style
   type="text/css"
   id="style1">
   <![CDATA[
    .str0 {stroke:black;stroke-width:0.570866}
    .fil1 {fill:#083652}
    .fil0 {fill:#1281C4}
   ]]>
  </style>
 <linearGradient
   inkscape:collect="always"
   xlink:href="#linearGradient8"
   id="linearGradient9"
   x1="304"
   y1="5365.5"
   x2="8107"
   y2="5365.5"
   gradientUnits="userSpaceOnUse" /><linearGradient
   inkscape:collect="always"
   xlink:href="#linearGradient8"
   id="linearGradient11"
   gradientUnits="userSpaceOnUse"
   x1="304"
   y1="5365.5"
   x2="8107"
   y2="5365.5"
   gradientTransform="translate(20.833333)" /></defs>
 <g
   id="Layer_x0020_1"
   inkscape:label="Layer 1">
  <metadata
   id="CorelCorpID_0Corel-Layer" />
  <rect
   style="font-variation-settings:normal;clip-rule:evenodd;opacity:1;fill:url(#linearGradient11);fill-opacity:1;fill-rule:evenodd;stroke:#000000;stroke-width:0;stroke-linecap:butt;stroke-linejoin:miter;stroke-miterlimit:4;stroke-dasharray:none;stroke-dashoffset:0;stroke-opacity:1;paint-order:stroke fill markers;image-rendering:optimizeQuality;shape-rendering:geometricPrecision;text-rendering:geometricPrecision;stop-color:#000000;stop-opacity:1"
   id="rect6"
   width="1274.5264"
   height="606.56293"
   x="1520.4952"
   y="4960.4194" /><path
   class="fil0"
   d="M2709 2958l144 0 484 286 -431 243 524 294 1 78 -722 0c-413,0 -787,170 -1061,443 -269,269 -438,648 -438,1061 0,408 169,787 438,1061 189,184 633,368 897,433l5 916c-513,-80 -1186,-363 -1539,-712 -433,-438 -707,-1036 -707,-1698 0,-662 274,-1265 707,-1703 438,-433 1036,-702 1698,-702zm-65 3904l787 0 0 906 -722 0c-20,0 -40,0 -60,-5l-5 -901 0 0zm2500 -3630l493 -274 60 0c662,0 1264,269 1703,702 433,438 707,1041 707,1703 0,662 -274,1260 -707,1698 -439,433 -1041,707 -1703,707l-722 0 0 -906 722 -25c413,0 791,-144 1060,-413 274,-274 443,-653 443,-1061 0,-413 -169,-792 -443,-1061 -269,-273 -647,-443 -1060,-443l-553 0 0 -180 344 -193 -344 -193 0 -61zm-65 484l0 143 -104 0 0 -85 104 -58zm-478 4052l-841 5 0 -901 841 -10 0 906z"
   id="path1"
   style="fill:url(#linearGradient9)" />
  <path
   id="path2"
   class="fil0"
   d="M 2634.6436 5566.9963 L 3421.0002 5566.9963 L 3421.0002 4960.0016 L 2634.6436 4960.0016 L 2634.6436 5566.9963 z " /><path
   id="path7"
   class="fil0"
   d="M 4528.9917 2945.0073 L 5144.0023 3293.0094 L 5487.9964 3486.0026 L 5144.0023 3678.9958 L 5144.0023 3934.0007 C 5199.0022 3949.0006 5237.9964 3999.0038 5237.9964 4058.0037 C 5237.9964 4103.0037 5219.0006 4143.0046 5184.0007 4163.0046 L 5184.0007 4546.0002 L 5133.9925 4546.0002 L 5133.9925 4188.0086 L 5109.0088 4188.0086 C 5099.0088 4188.0086 5088.9998 4188.0037 5078.9998 4183.0037 L 5078.9998 4551.005 L 5028.9917 4551.005 L 5028.9917 4157.9997 C 4998.9917 4132.9997 4984.0088 4098.0037 4984.0088 4058.0037 C 4984.0088 3999.0038 5023.9999 3949.0006 5078.9998 3934.0007 L 5078.9998 3716.0034 L 4701.0091 3927.9989 L 4701.0091 7768.0054 L 5736.0026 7768.0054 L 5736.0026 2958.0078 L 5637.0036 2958.0078 L 4528.9917 2945.0073 z "
   style="fill:#0c293e;fill-opacity:1" />
  <path
   class="fil0"
   d="M2649 7265c0,513 0,1026 -5,1539 349,-349 677,-662 1026,-1011 0,-1290 4,-2584 5,-3875l-769 -431 953 -536 -991 12 -214 0c-5,1444 -50,2848 -5,4302l0 0z"
   id="path3"
   style="fill:#0c293e;fill-opacity:1" />
  <path
   class="fil0"
   d="M2649 7873c-15,428 -239,772 -418,1080 682,-244 1419,-562 1439,-1160 -65,5 10,0 -20,-45l-219 5 -782 5 0 15c-5,35 0,65 0,100z"
   id="path4"
   style="fill:#0c293e;fill-opacity:1" />
  <path
   class="fil1 str0"
   d="M3845 7319l0 -452 105 0c57,0 228,-2 379,-4l275 -4 0 908 -192 4c-105,3 -276,4 -379,3l-188 -2 0 -453z"
   paint-order="stroke fill markers"
   id="path5" />
  <path
   class="fil0"
   d="M3757 7321l0 -459 153 -1c85,0 182,-1 215,-2 34,-1 156,-3 272,-4l210 -2 2 460 1 459 -56 2c-31,1 -223,3 -427,4l-370 1 0 -458z"
   paint-order="stroke fill markers"
   id="path6"
   style="fill:#0c293e;fill-opacity:1" />
  <polygon
   class="fil0"
   points="4198,4156 2984,3487 3955,2951 4442,2951 5412,3486 "
   id="polygon6"
   style="fill:#0c293e;fill-opacity:1" />
 </g>
</svg>
